<svg xmlns="http://www.w3.org/2000/svg" xml:space="preserve" fill="none" viewBox="0 0 1019.1 309">
  <g clip-path="url(#a)" transform="translate(-136.2 -135.7)">
    <path fill="#000" d="M226.9 137.5c-22.5-2.8-47-3.5-67.3 7.9a48.4 48.4 0 0 0-23 38.3c-2.6 24.1 6.7 47.2 10 70.8 3.8 22 6.7 45.1 19 64.3 11.3 17.2 30 27.4 48.5 35.3 17 7.2 34.1 14 52 18.5a99 99 0 0 0 73.3-9.8c20.4-11.7 35.3-30.5 48-49.9 10.7-14.8 24-29.6 42-35.3A31 31 0 0 1 461 288c13.7 14.8 18.6 35.1 23.5 54.2 6 21.5 17.4 42.4 36.3 55.2 18.5 13 40.6 19.8 62.7 24.1 21.3 3 43.2 4.4 64.6 1.2a69.8 69.8 0 0 0 41.4-25.5c21.2-24.5 34.7-54.2 53-80.7 9.1-14.6 19.3-29.6 21.6-47 1.4-10-3.2-20.2-11.2-26.2-13.4-10.4-30.3-14.6-46.4-18.7-20.8-4.9-42-8-63-11.8-24.4-3-49-5.2-73.6-5.5-18.6.9-37.1 3.4-55.7 5-28.7 3-58.6 5-86.2-4.9-23-7.9-44.2-19.9-66.8-28.8-42.7-18-86.7-34-132.7-40.9h-.8zm-41.3 13.7c4.1 3.8 6 11.9-2 12-4.3 2.2-13 2.4-7.9 8.8 2 5.3 7.5 13.8-1.8 14.5-4.3 2.8-5.1-3.3-6.3-6.1-1.9-4.7-3.5-9.6-5.8-14-5.4-8.4 8-7.9 12.7-11 3.7-1.5 7.4-3 11.1-4.2zm72.9 20.7c32.4 2 65.2 10 92.8 27.7 12.4 8 23.3 20.3 25.3 35.5 4 23.5-2.7 47.5-12.8 68.7-9.4 19-22.9 37.5-42.4 47-18.4 8-39.4 7.2-58.8 4-24-4.4-48.1-13.1-66.3-29.8-21.8-21.4-30.9-53.4-28.6-83.4 1.9-21.4 10.4-43.4 27.6-57 14.4-10.3 32.6-12.2 49.8-13 4.5 0 9 0 13.4.3zm332.8 60c28 2.6 56.5 7.8 81 22a47 47 0 0 1 21.7 28.6c6.7 23.3 2.8 48.3-5 70.9-7 19.7-18.2 39.1-35.9 51.2-9 6-20 8-30.6 8-51.1 1.9-103-27.8-124.7-74.6-10.8-23.3-12.2-51.8.6-74.6 5.6-10.1 12.7-20.5 23.9-24.8 15.5-6.5 32.7-7 49.3-7.4 6.6 0 13.1.3 19.7.8zm133.2 15.5c5.7 4.1 10 9.8 15.7 13.9 4.3 2.7 6 7.1.7 10-5 4.8-9.6 10.2-14.8 15-4.7-1.4-10.4-8-3.6-11.3 3-4 11.4-7.9 3.8-11.7-4-4-12.6-9.1-4.5-13.8.9-.7 1.4-2 2.7-2.1z"/>
    <path fill="#707070" d="M862.6 318.9c-4.8-.4-6.2 7.2-1.5 8.6 3.7 1.4 7.6-3.4 5.1-6.7-.8-1.2-2.2-2-3.6-2zm204.4 0c-4.7-.4-6.1 7.2-1.5 8.6 3.8 1.4 7.6-3.4 5.2-6.7-.8-1.2-2.2-2-3.7-2zm-250 4.5c-4.7 13.4-10.3 26.4-15.5 39.6-2.5-11.8-5.7-23.6-7.5-35.5.7-2 8.4-.6 4.7-3.7a60 60 0 0 1-11.2.3c-2 0-8.3-1-4.9 2 4-.4 5 3.4 5.3 6.5a1810 1810 0 0 1 9.6 41.7h3.5c4.5-13.3 9.9-26.2 15-39.2 4.9 13 9.8 26 14.1 39.2h3.6c3.6-13.8 7.4-27.5 11.6-41 .8-3.6 2.2-7.5 6.3-7.8.5-3.1-4.9-.7-7-1.4-2.5.6-7-1.3-8.2.8 1.2 2.5 7.6-.2 6.2 4.6-1.3 4-2 8.3-3.2 12.4l-6.2 21.6c-4.7-13.4-9.7-26.6-14-40h-2.3zM935.3 336c-6-.1-13.2 3.2-14.2 9.7-1 4.7 2.1 10 7 11 4.4 1.4 9.5 1.5 13.4 4.1 3.7 3.6 1 10.4-3.9 11.3-4 1-9.4 1-12.2-2.5-2.3-2-.6-6.6-2.6-7.7-3.3 1.5-.2 6.3-2 9-.2 4.5 6.6 2.9 9.6 4 6.6.7 14.4-1.5 17.4-8 2.3-4.2 1.5-10.7-3.4-12.7-4.8-2-10-2.3-14.8-4.3-3.7-1.6-3.9-6.7-1.2-9.3 3-3.4 8.5-2.8 12.1-.6 4 1 1 7.8 5.3 7.2-.5-3.4 2.6-9.5-3-10-2.4-.7-5-1.2-7.5-1.2zm206 0c-6-.1-13 3.2-14 9.7-1.1 4.7 2 10 7 11 4.4 1.4 9.4 1.5 13.4 4.1 3.7 3.6.9 10.4-4 11.3-4 1-9.4 1-12.2-2.5-2.2-2-.5-6.6-2.6-7.7-3.2 1.5-.2 6.3-2 9-.2 4.5 6.6 2.9 9.6 4 6.6.7 14.5-1.5 17.5-8 2.3-4.2 1.4-10.7-3.5-12.7-4.7-2-10-2.3-14.8-4.3-3.7-1.6-3.8-6.7-1.1-9.3 3-3.4 8.5-2.8 12-.6 4.1 1 1 7.8 5.4 7.2-.6-3.4 2.5-9.5-3-10a28 28 0 0 0-7.6-1.2zM971 336a21 21 0 0 0-15.7 7.8 23.5 23.5 0 0 0 0 23.9c5 7.3 15.4 8.7 23.3 5.5 2.3-1 5.1-2.1 5.8-4.9-.5-2.4-4.2 1.6-6 1.6-6.9 2.6-16-1-17.9-8.3-.6-2.5-2.7-8 2.2-6.7 7.6 0 15.3.4 22.9-1 1-6.4-1.6-14-8-16.5-2-1-4.3-1.3-6.6-1.3zm-105.2.2c-4 1.9-8.4 2.8-12.8 3.3-1 4.5 7.3.2 6.5 5.4-.1 8.4.2 16.8-.5 25.1-.6 3.3-8-.2-5.5 4 6.4-.5 12.9-.5 19.3-.1 1-4.4-7.2-.3-6.3-5.5-.1-10.3-.4-20.5.1-30.7.3-.9-.2-1-.8-1.5zm204.4 0c-4 1.9-8.3 2.8-12.7 3.3-1 4.5 7.2.2 6.4 5.4 0 8.4.3 16.8-.5 25.1-.6 3.3-8-.2-5.5 4 6.4-.5 12.9-.5 19.3-.1 1-4.4-7.1-.3-6.2-5.5-.2-10.3-.4-20.5 0-30.7.3-.8-.1-1.1-.8-1.5zm21.3 0c-4 2-8.6 3-13.1 3.4-1 4.5 7.1.1 6.3 5.3.1 6.5.2 13 0 19.5-.3 4.9 3.5 9.8 8.5 10.1 4.8.9 10.3-.4 13.4-4.4 1.2-1.5 4.8-4.7 3.7-.6-.5 2.2-.7 5.8 2.6 4.2 3.5-.5 8 .7 10.8-.3 0-3.7-7.2 0-6.4-5.1-.1-8.6-.3-17.2 0-25.8-.2-2.3 1.8-7.5-2.3-5.6a31 31 0 0 1-10.4 2.6c-3 3.8 4.7 1 5.5 3.8.2 6.5.6 13-.2 19.6-2.4 5.8-10.4 9.2-15.8 5.4-3.4-3.2-2.2-8.3-2.5-12.5 0-6.4.2-12.8.5-19.1l-.2-.4zm-191.3 0c-3.2 0-6.5 1-8.7 3.5-1.7 1.1-5.7 6.2-4.6 1.5 1-2.4.1-6.3-2.9-3.9a50 50 0 0 1-10 2.2c-.8 4.5 7.9.1 6.4 5.9.1 8.1 0 16.3-.3 24.4-.7 3.7-7.2-.4-6 4a207 207 0 0 1 19.3 0c.9-4.3-7.3-.3-6.3-5.6.2-6.9-.7-13.8.2-20.6 2-6.8 12.3-8.6 16.7-3.3 2.8 3.9 1.6 8.8 1.9 13.2 0 5.5-.2 11-.6 16.4 4.6-.3 9.1-.4 13.7 0 1.2-4.8-7 0-6-5.3-.8-7.6.1-15.4-.7-23a10 10 0 0 0-7-8.4c-1.6-.6-3.3-1-5-1zm113.5 0c-3.6-.2-7 1.6-9.3 4.3l-3.1 2.8c-.4-2 1.9-8.3-2.2-6.3-3.4 1.4-7 2-10.7 2.5-.8 4.5 7.9.1 6.4 5.9.1 8.1 0 16.3-.3 24.4-.7 3.7-7.2-.4-6 4 6.3-.3 12.8-.4 19.2 0 1-4.3-7.2-.3-6.2-5.6.3-7.2-1-14.5.5-21.6 2.3-6.2 12.5-7.6 15.7-1.4 2.2 5.9.8 12.3 1 18.4.3 3.4.5 9.4-4.7 8-3.5-.5-.8 4 1.5 2.1 5.5-.2 11-.2 16.4.2 1-4.4-6.6-.4-6.2-5.2.1-7-.7-13.9.1-20.7.7-7.3 12-9.3 15.7-3.2 1.9 4.3 1.4 9.2 1.4 13.7 0 5.1-.3 10.3-.4 15.4 4.5-.3 9-.3 13.6 0 1-4.4-6.6-.4-6.2-5.2 0-6-.3-12-.3-17.9 0-3.8 0-8.2-3-11-4.9-5-13.9-4.7-18.4.7-1.7 1.2-3.5 4.5-4.3 1a11.8 11.8 0 0 0-10.2-5.2zm-44.3 2.5c4.9-.4 9 4.1 9 8.8 1.4 3.3-.9 6-4.3 4.8-4.8 0-9.7-.1-14.5-.5-.2-4.9 1.4-11 6.7-12.7 1-.3 2-.4 3.1-.4zm9.8 50c-5.7.4-12.2 2.4-15.3 7.6-2.8 5-1.3 13 4.7 14.8 2.3.2 3 2 .5 2.6-2.9 1.4-6.4 6.3-3 8.8 2 .5 4.3 2 1 2.9-3.7 1.2-6.8 4.4-6.2 8.5.2 5.8 5.8 10 11.3 10.5 8.2 1.4 18-1.1 22.6-8.4 2.7-4.3 3.4-11-.7-14.7-4-3-9.3-1.6-14-1.8-3-.1-10 1-9.1-3.9 1.7-4.7 7.2-2.5 10.7-4.2 5.4-1.8 10-7 9.4-12.9-1.4-2.5.2-3.6 2.6-3 1.2-.2 2.7.4 3.6-.3 1.9-1.7 1.7-4.5-1.3-3.4-4 .4-8.2.6-11.5-2-1.7-.7-3.5-1-5.3-1zm68.6.1a17.7 17.7 0 0 0-18.3 15c-1.3 7.6 1.7 16.7 9 20 9.6 4.2 22.3-1 25.5-11.1 2.7-7.6.4-17.3-6.8-21.5a18 18 0 0 0-9.4-2.4zm32.4.1a38 38 0 0 1-12.3 3.2c-.7 4 7 .2 6 5.5-.2 4.5.2 9-.1 13.4 0 3.8-.5 8.1 2.5 11 3.2 3.5 8.6 3.4 12.8 2.1 3.5-.9 5.3-4.3 8.1-6.2 1.5 1.2-1.6 7.8 3 6 3-.9 8.4 1.6 10-1-1.5-2-6.5.3-6-4a332 332 0 0 1 .3-29.5c-4 0-7.3 2.7-11.4 2.4-2.3.2-1.9 3.4.5 2.2 4.6-.5 4.3 4.3 4 7.5 0 4.1.4 8.4-.4 12.5-2.2 5.6-10.4 8.7-15.2 4.4-2.7-3.5-1.4-8.3-1.8-12.5 0-5.5.2-11 .5-16.5l-.2-.3-.3-.2zm44.5 0c-3.7 2-8.8 2.3-12 3.6-.2 3.7 7.6-.4 6 5.2.6 13.5.4 27.1.2 40.7.7 3.6-2.6 4.8-5.5 4.2-1.3 3.9 4.6 1.2 6.8 1.9 3.8 0 7.5 0 11.3.2.8-4.2-6.8-.3-6.2-5.2.1-5.5-.3-11-.1-16.7a15.6 15.6 0 0 0 16.5-1c4.8-2.7 9-7 10.6-12.5 2.3-6.6.4-15.4-6.4-18.7a16 16 0 0 0-13.6-.3c-2.5 1.4-5.4 5.2-7.1 5.7-.4-2.2.7-5.4-.5-7zm-100.7 0c-4.8-.1-7.4 4.5-10 7.7-2-1.1 1.6-7-1.6-7.3-3 1.3-6 2.4-9.4 2.4-3.8 1.1.4 3.5 2.6 2.6 3.7 1.2 1 6.8 1.8 9.8 0 5.6.1 11.3-.5 16.8-1.2 1.8-8.4.2-5 3.3 3-.4 6-.5 9-.4 3.4 0 6.7.2 10 .3.6-4.6-8.3-.1-7.3-6 .3-6-.9-12.3.5-18.3 1.1-4.2 8-6.5 10-2 4 2.8 2.1-3.9 3-6 .4-2-1.1-3.4-3.1-2.8zm22.2 2.4c5.3-.3 9.6 4.4 10.6 9.3a24 24 0 0 1-1 18 9.6 9.6 0 0 1-14.4 1.5c-4.3-4.3-5.3-11-5.2-16.8 0-4.9 2.2-10.6 7.4-11.7.9-.2 1.7-.3 2.6-.3zm-69.5.1c5 0 8.6 5.3 8.2 10a7.8 7.8 0 0 1-8 8.6c-4.5.1-7.7-4-8-8.1-.7-4.2 1.2-9.4 5.8-10.3l2-.2zm158.6 2.2c6-.2 11.3 5.2 11.3 11.1.6 6.1-2 13.6-8.3 15.6a12.7 12.7 0 0 1-13.2-4c.2-5.4-.3-11 .3-16.5a11 11 0 0 1 10-6.2zm-155.8 30.9c4 0 10-1 11.3 4.1 1.8 6-3.1 12.2-9 13.2-5.3 1.5-12.4.2-14.7-5.5-1.7-4.2.2-10 5-11.3 2.4-.9 5-.5 7.4-.5z"/>
  </g>
  <defs>
    <clipPath id="a">
      <path fill="#fff" d="M0 0h1682v601H0z"/>
    </clipPath>
  </defs>
</svg>
